<?xml version="1.0" encoding="UTF-8" standalone="no"?>
<!-- Created with Inkscape (http://www.inkscape.org/) -->

<svg
   xmlns:dc="http://purl.org/dc/elements/1.1/"
   xmlns:cc="http://creativecommons.org/ns#"
   xmlns:rdf="http://www.w3.org/1999/02/22-rdf-syntax-ns#"
   xmlns:svg="http://www.w3.org/2000/svg"
   xmlns="http://www.w3.org/2000/svg"
   xmlns:xlink="http://www.w3.org/1999/xlink"
   xmlns:sodipodi="http://sodipodi.sourceforge.net/DTD/sodipodi-0.dtd"
   xmlns:inkscape="http://www.inkscape.org/namespaces/inkscape"
   width="64px"
   height="64px"
   id="svg3493"
   sodipodi:version="0.32"
   inkscape:version="0.47pre4 r22446"
   sodipodi:docname="pino_fresh.svg"
   inkscape:output_extension="org.inkscape.output.svg.inkscape"
   version="1.1">
  <defs
     id="defs3495">
    <linearGradient
       id="linearGradient4103">
      <stop
         id="stop4105"
         offset="0"
         style="stop-color:#004455;stop-opacity:1;" />
      <stop
         id="stop4107"
         offset="1"
         style="stop-color:#008db0;stop-opacity:1;" />
    </linearGradient>
    <inkscape:perspective
       sodipodi:type="inkscape:persp3d"
       inkscape:vp_x="0 : 32 : 1"
       inkscape:vp_y="0 : 1000 : 0"
       inkscape:vp_z="64 : 32 : 1"
       inkscape:persp3d-origin="32 : 21.333333 : 1"
       id="perspective3501" />
    <inkscape:perspective
       id="perspective2840"
       inkscape:persp3d-origin="0.5 : 0.33333333 : 1"
       inkscape:vp_z="1 : 0.5 : 1"
       inkscape:vp_y="0 : 1000 : 0"
       inkscape:vp_x="0 : 0.5 : 1"
       sodipodi:type="inkscape:persp3d" />
    <radialGradient
       inkscape:collect="always"
       xlink:href="#linearGradient3601"
       id="radialGradient3607"
       cx="21.148922"
       cy="50.179276"
       fx="21.148922"
       fy="50.179276"
       r="10.349472"
       gradientUnits="userSpaceOnUse" />
    <linearGradient
       id="linearGradient3601">
      <stop
         style="stop-color:#a6ff6a;stop-opacity:0.83417088;"
         offset="0"
         id="stop3603" />
      <stop
         style="stop-color:#1c7e00;stop-opacity:1;"
         offset="1"
         id="stop3605" />
    </linearGradient>
    <radialGradient
       r="10.349472"
       fy="50.179276"
       fx="21.148922"
       cy="50.179276"
       cx="21.148922"
       gradientUnits="userSpaceOnUse"
       id="radialGradient2849"
       xlink:href="#linearGradient3601"
       inkscape:collect="always" />
  </defs>
  <sodipodi:namedview
     id="base"
     pagecolor="#ffffff"
     bordercolor="#666666"
     borderopacity="1.0"
     inkscape:pageopacity="0.0"
     inkscape:pageshadow="2"
     inkscape:zoom="5.6568542"
     inkscape:cx="3.3851261"
     inkscape:cy="32.755397"
     inkscape:current-layer="layer1"
     showgrid="true"
     inkscape:document-units="px"
     inkscape:grid-bbox="true"
     inkscape:window-width="1680"
     inkscape:window-height="1004"
     inkscape:window-x="0"
     inkscape:window-y="0"
     inkscape:window-maximized="1" />
  <metadata
     id="metadata3498">
    <rdf:RDF>
      <cc:Work
         rdf:about="">
        <dc:format>image/svg+xml</dc:format>
        <dc:type
           rdf:resource="http://purl.org/dc/dcmitype/StillImage" />
        <dc:title></dc:title>
      </cc:Work>
    </rdf:RDF>
  </metadata>
  <g
     id="layer1"
     inkscape:label="Layer 1"
     inkscape:groupmode="layer">
    <path
       sodipodi:type="arc"
       style="fill:#ffffff;fill-opacity:1;fill-rule:nonzero;stroke:none"
       id="path3295"
       sodipodi:cx="415"
       sodipodi:cy="878.86218"
       sodipodi:rx="13.5"
       sodipodi:ry="18.5"
       d="m 428.5,878.86218 a 13.5,18.5 0 1 1 -2e-5,-0.0322 L 415,878.86218 z"
       sodipodi:start="0"
       sodipodi:end="6.2814419"
       transform="matrix(0.20451517,0,0,0.11317168,-52.873796,-67.46231)" />
    <path
       sodipodi:type="arc"
       style="fill:#ffffff;fill-opacity:1;fill-rule:nonzero;stroke:none;display:inline"
       id="path3446"
       sodipodi:cx="415"
       sodipodi:cy="878.86218"
       sodipodi:rx="13.5"
       sodipodi:ry="18.5"
       d="m 428.5,878.86218 a 13.5,18.5 0 1 1 -2e-5,-0.0322 L 415,878.86218 z"
       sodipodi:start="0"
       sodipodi:end="6.2814419"
       transform="matrix(0.20451517,0,0,0.11317168,-52.873796,-67.46231)" />
    <path
       style="fill:#e7d3b8"
       d="m 21.038998,57.448105 c -2.219899,0.200824 -4.589494,-0.364095 -4.741875,-2.773359 -1.662654,-1.915175 -3.757372,-4.339076 -3.064613,-6.967119 2.071508,-0.736393 4.450604,-0.04752 6.614707,-0.503884 1.560852,-1.644071 3.300606,-3.322432 4.984398,-4.943103 2.7477,-0.873281 0.08129,-3.581432 -0.870824,-4.901706 -1.689128,-2.235395 -1.954046,-5.004513 -2.228275,-7.643968 -0.983529,-1.774269 -1.070092,-3.850286 -2.154104,-5.584479 -1.195719,-2.149559 -3.209448,-3.837292 -4.383773,-6.040423 -0.736174,-1.935424 -3.835184,-4.416805 -2.335319,-6.340348 2.469378,-0.641929 4.766655,1.26419 7.157107,1.759429 3.55622,1.030776 7.102603,3.200472 10.963691,2.37258 4.198874,-1.805173 8.068564,-4.215371 12.044535,-6.3932335 2.329767,-1.4173228 4.97191,-2.5303864 7.710408,-2.9890386 1.93544,1.2314344 -0.180433,3.9541471 -0.363531,5.7169791 -0.719889,2.723118 -2.190623,5.177505 -3.466844,7.689391 -1.670011,2.449342 -3.022532,5.189868 -3.211182,8.141368 -0.07744,2.277262 -0.334126,4.544914 -1.514623,6.567194 -1.098844,2.047254 -3.802505,3.349208 -3.882114,5.820156 0.69125,2.263003 3.453952,3.019823 5.073556,4.565893 2.543743,0.976464 0.683376,4.362611 1.878084,6.321771 0.517047,1.757024 1.392014,3.429782 1.60628,5.258669 -2.414296,1.304041 -5.339739,0.767949 -8.000389,0.919673 -5.939361,-0.05078 -11.878279,-0.06011 -17.8153,-0.05244 z m 2.921636,-27.107518 c -1.049093,-1.60257 -0.119797,1.397398 0,0 z m 9.213963,-0.531124 c -0.171647,-1.221627 -0.354681,-1.979959 -1.264842,-0.565679 -0.186394,0.497243 2.023878,1.866913 1.264842,0.565679 z"
       id="path3444" />
    <path
       style="fill:#d58c8b"
       d="m 37.228583,57.434217 c -6.422664,-0.3272 -12.887034,0.270227 -19.287035,-0.384725 -1.713994,-1.185433 -1.69528,-3.637548 -3.439949,-4.923462 -1.810251,-1.754549 -1.968027,-5.635856 1.620065,-4.800715 3.089426,0.904457 5.153022,-1.100802 6.806374,-3.211434 2.03951,-1.279265 4.678552,-3.410845 2.110728,-5.594649 -1.969418,-2.127432 -2.982227,-4.885275 -2.933026,-7.703852 -0.543757,-2.528844 -1.590597,-5.186721 -2.849886,-7.566301 -2.543568,-3.119689 -4.754952,-6.49327 -6.828415,-9.882945 -0.274604,-2.840545 3.355792,-1.603357 4.910358,-0.814861 3.245243,1.011386 6.379696,2.341171 9.668755,3.211214 2.72106,0.840018 5.338641,-0.251214 7.618861,-1.566352 5.222813,-2.629749 9.965351,-6.3219869 15.790487,-7.7312069 2.540551,0.9164318 0.201164,4.1986819 -0.09119,5.9788819 -1.139431,3.569743 -3.102454,6.81972 -5.007893,10.057992 -1.470984,2.923001 -1.542216,6.199846 -1.973073,9.341577 -0.648668,2.870562 -3.094362,4.880718 -4.733421,7.219623 -1.018618,2.784335 2.308909,4.170867 4.279198,5.406582 2.527759,0.826388 1.601972,3.311282 2.039456,5.177853 0.419581,2.216272 1.379676,4.322655 1.983716,6.472379 -1.900072,1.93541 -5.601238,1.079328 -8.246044,1.415256 -0.48052,-0.01545 -0.960558,-0.04759 -1.438069,-0.100854 z m -3.967701,-8.948508 c 2.769702,1.044731 4.618552,-3.421035 1.359425,-3.550897 -1.929124,-1.142331 -1.200755,-4.657624 -4.394218,-4.572791 -2.504641,0.200123 -2.244537,3.338315 -3.61811,4.823276 2.256447,0.322232 2.029363,3.040735 3.166687,3.641727 1.17551,0.02497 2.312397,-0.387021 3.486216,-0.341314 z m -7.352885,-3.935014 c 2.048138,-2.138421 -3.190289,-1.360819 -0.917794,0.173003 0.275955,0.33759 0.652797,-0.05121 0.917794,-0.173003 z m 9.981592,-0.259848 c 1.95902,-2.380283 -4.162607,-1.49159 -1.226783,0.129409 0.39912,0.128238 0.877193,0.118232 1.226783,-0.129409 z M 34.07875,41.647888 c 0.560635,-1.6977 -3.558553,-1.882025 -1.259835,-0.401254 0.310405,0.20583 1.586054,1.757228 1.259835,0.401254 z m -0.967882,-3.501746 c 4.312213,-1.637076 7.616578,-6.58028 5.657024,-10.878722 -1.371431,-2.222436 -3.960223,-3.983771 -6.766502,-3.935461 -0.180646,2.819891 2.882434,2.539892 4.813204,3.312277 1.460093,0.68183 0.576924,1.478152 -0.376796,0.44778 -0.877235,-0.677573 -5.07115,-0.954993 -3.002006,0.286176 1.700113,-0.619819 4.723163,0.740019 2.510214,2.337856 -0.744887,1.845647 -3.263823,-0.03029 -3.117812,-1.501329 -1.469544,1.709087 -0.628662,-1.964913 -2.218156,-0.425344 -1.292643,1.077072 -4.592248,-0.934862 -3.695466,1.18347 -0.0084,1.692082 -2.794398,2.57097 -3.384046,0.692355 -1.730015,4.266956 2.295614,9.823678 7.31581,9.048978 0.777341,-0.09306 1.53949,-0.289418 2.264532,-0.568035 z m -5.181267,-1.564843 c 0.810553,-0.868223 5.68703,-0.0751 2.393283,0.02961 -0.796654,0.0506 -1.598962,0.05528 -2.393283,-0.02961 z m 0.855058,-1.889637 c 0.886416,-1.461593 1.908991,0.805252 0,0 z M 27.518638,34.38383 c -0.731934,-1.43044 1.717341,1.16007 0,0 z m -2.855905,-7.071713 c -0.945239,-0.992779 -2.273848,1.768352 -0.469075,0.536407 0.215969,-0.09093 0.573208,-0.237945 0.469075,-0.536407 z m -0.995001,-0.730484 c 2.625619,-0.392892 1.007976,-5.250003 -0.567604,-1.952101 -0.370107,0.57707 -0.916693,3.126778 0.567604,1.952101 z m -1.90918,-6.116818 c 1.54472,-0.993908 2.387345,-3.557779 -0.259396,-3.688402 -1.64413,-0.825808 -4.442415,-2.640772 -5.805723,-1.847063 0.926821,2.332691 3.013336,4.018833 4.58355,5.961778 0.561043,0.724722 1.322226,0.322833 1.481569,-0.426313 z m 20.973941,0.202336 c 2.651986,-2.904847 4.082831,-6.576423 5.167439,-10.215534 -1.305281,-1.667315 -3.718883,1.282024 -5.30207,1.800269 -2.263576,1.438391 -4.647607,2.76991 -6.551019,4.640706 0.369819,2.401409 3.556383,3.767154 5.756649,4.27513 0.357814,-0.06949 0.683476,-0.250064 0.929001,-0.500572 z"
       id="path3442" />
    <path
       style="fill:#ad6969"
       d="m 34.52437,57.386108 c -5.454771,-0.240361 -10.939523,0.27411 -16.377102,-0.238512 -2.117193,-1.298485 -2.42691,-4.11958 -4.215826,-5.813899 -1.403154,-1.611672 -1.061126,-4.543186 1.700589,-3.998676 2.797306,0.571243 5.354524,-0.255229 6.674888,-2.692605 1.572686,-1.561831 5.252092,-3.282033 2.976887,-5.752348 -1.959757,-1.945564 -3.200335,-4.498039 -3.1593,-7.210179 -0.02889,-2.647911 -1.713584,-4.878254 -2.310869,-7.435105 -1.356998,-2.253067 -3.336957,-4.142036 -4.682976,-6.420935 -0.805313,-1.875429 -3.313038,-3.879392 -2.36889,-5.946672 2.537754,-0.848418 4.910995,1.129109 7.337538,1.640549 3.213367,1.076737 6.43912,2.704817 9.939608,2.504759 3.015698,-0.634152 5.553104,-2.459883 8.209681,-3.861761 3.823135,-2.1681246 7.659458,-4.6145674 12.03978,-5.6081021 2.715281,1.0513768 -0.175277,4.6323181 -0.289263,6.6458841 -1.349674,4.03153 -4.073631,7.475384 -5.692353,11.389322 -1.142993,3.496924 -0.107047,7.586473 -2.751345,10.616038 -1.384263,1.986274 -4.902106,4.444233 -2.325879,6.876863 1.619346,1.716586 4.700376,2.227688 5.483316,4.601942 -0.301726,2.31434 0.375929,4.600046 1.20907,6.76601 1.280003,1.870889 0.472425,4.426362 -2.316334,3.937803 -3.026233,-0.05826 -6.04881,0.15534 -9.08122,-3.76e-4 z m 9.882468,-0.842911 c 2.126044,-1.768947 -0.127895,-4.382284 -0.333373,-6.484033 -0.771726,-0.96606 -1.755028,2.043951 -2.638891,2.52005 -1.258688,1.840681 -3.090408,3.320779 -5.5455,3.003974 -2.116644,0.04344 -4.246144,-0.308238 -6.208864,-1.059431 -1.561351,-1.813632 -4.616087,-0.83978 -6.495387,-0.13631 -1.529423,1.997336 1.045749,2.913433 2.833175,2.324798 5.581878,-0.131267 11.167994,0.302279 16.743121,0.0045 0.5505,-0.03954 1.100001,-0.09422 1.645719,-0.173572 z m -22.97457,0.05757 c -0.492259,-1.401961 -4.940943,-1.472794 -2.532317,0.01084 0.835232,0.104085 1.709867,0.236725 2.532317,-0.01084 z m 10.067869,-7.923494 c 3.64615,-0.09117 7.061244,-1.572036 10.214452,-3.123792 0.565187,-2.356958 -3.26,-0.833217 -3.934343,-2.906268 -1.379712,-1.388166 1.372818,-0.218227 -0.158792,-1.488778 -0.630179,-1.467846 -3.541403,-2.031234 -3.811813,-2.739012 1.664677,-0.620689 -1.888693,0.624802 -2.591464,0.73895 -1.859361,0.788105 -3.850233,-0.489361 -5.3924,-0.764287 1.334896,1.030459 1.598127,2.777953 0.479581,4.086497 0.756275,-0.64251 2.675541,-3.076316 2.81822,-2.143163 -1.346372,1.218221 -3.834082,3.956808 -1.78646,5.389485 1.174636,0.636809 1.934849,2.023453 1.558647,3.091456 0.870784,0.141648 1.736554,-0.197802 2.604372,-0.141088 z m 2.649561,-3.889701 c -1.201775,-1.239143 -0.746407,-3.36142 -2.751258,-4.062902 -1.219671,-2.237558 1.747876,1.531291 2.837991,1.549451 2.591433,-0.849014 3.401757,2.63836 0.573127,2.658788 l -0.330909,-0.04011 -0.328951,-0.105225 0,0 z m 1.615208,-0.385165 c 2.179912,-1.88864 -3.184955,-2.40017 -1.729523,-0.199331 0.458369,0.403963 1.178696,0.446019 1.729523,0.199331 z m -7.670724,3.869931 c -0.293499,-0.408066 -2.161244,-0.586509 -0.655665,-1.667791 -2.176222,-0.528002 -1.302036,2.68703 0.655665,1.667791 z m -6.651535,-0.703114 c -0.615661,-1.434974 3.432217,-2.290043 1.927958,-3.003804 -1.056883,0.547806 -3.089066,2.840106 -2.014632,3.336836 l 0.07804,-0.155475 0.0086,-0.177557 z m 4.465082,-3.011876 c 1.931396,-2.023471 -3.523651,-1.709208 -1.093784,0.193122 0.349526,0.208379 0.842168,0.107972 1.093784,-0.193122 z m 7.093596,-6.370069 c 4.357998,-1.625772 7.630993,-6.604413 5.727262,-10.931314 -1.236244,-2.126855 -4.29746,-4.247475 -6.682515,-3.786022 -0.583454,2.586925 2.314541,2.517776 4.083385,2.998121 1.443614,0.195436 1.740591,1.813581 0.213122,0.605949 -0.889466,-0.687563 -5.27685,-0.975066 -3.148144,0.456073 1.219148,-0.881631 4.661196,0.619105 2.985925,1.728736 -0.43117,2.108406 -4.04285,0.83549 -3.201202,-1.060339 -0.681339,0.996353 -2.054476,0.07957 -1.133304,-0.805202 -1.678082,0.594414 -3.638539,0.65023 -5.227237,0.732882 1.185693,1.906353 -2.217996,3.693652 -3.177582,1.524905 -1.835408,4.099141 1.835403,9.349491 6.638813,9.105154 1.001348,-0.0037 1.998947,-0.204595 2.921477,-0.568943 z m -5.220033,-1.654755 c 0.89755,-0.438358 4.278135,-0.201139 3.612842,-0.05857 -1.180547,0.262922 -2.423883,0.291207 -3.612842,0.05857 z m 1.016653,-1.976933 c 0.708163,-0.642446 1.053662,0.823543 0,0 z m 11.84101,0.49263 c 0.709273,-1.047408 1.734816,-3.896718 1.215726,-3.991558 -0.276197,2.416176 -1.788885,4.278445 -3.335341,6.049587 0.837469,-0.329277 1.617569,-1.293846 2.119615,-2.058029 z m -1.309617,-1.96777 c 0.57147,-0.982104 0.361344,-2.226687 -0.003,-0.498283 -0.579216,1.053018 -0.841321,2.599024 0.003,0.498283 z m 2.963478,-3.748215 c -0.46312,-2.027311 -0.4441,2.728891 0,0 z m -17.675801,-1.95465 c -0.671216,-1.409771 -2.697436,1.680316 -0.681258,0.585054 0.219759,-0.147694 0.684685,-0.240066 0.681258,-0.585054 z m -0.369532,-1.100061 c 2.063661,-1.471663 0.09956,-4.725048 -1.322684,-1.592626 -0.646489,1.084974 -0.852542,3.64 0.870542,1.804931 l 0.452142,-0.212305 z m -2.177815,-1.36768 c 1.057931,-2.898419 4.846277,-2.770489 7.514371,-2.765722 3.593079,-0.09399 7.272962,1.508066 9.220648,4.391511 2.321514,0.30698 -3.054357,-3.499 -0.403152,-3.398896 1.677395,0.216188 3.50513,0.310373 4.15073,2.003602 0.997598,-1.977079 2.10804,-4.038281 3.266607,-6.027956 1.790075,-3.352724 3.497199,-6.784364 4.546175,-10.4136386 -1.105618,0.6580862 0.553284,-1.865854 -1.188263,-0.9758958 -6.244859,2.2078797 -11.696222,5.9426834 -17.556963,8.8536204 -3.969572,1.123333 -7.828266,-0.965685 -11.509985,-2.093956 -1.988655,-0.420261 -4.776659,-2.80093 -6.413424,-1.444897 0.164199,2.736103 3.000054,4.673489 4.233711,7.085068 1.612548,1.939298 3.393999,3.982895 3.781069,6.432622 0.202555,-0.527003 0.19639,-1.10492 0.358476,-1.645462 z M 19.20319,20.929402 c -1.571234,-1.918999 -3.036391,-3.951397 -4.341374,-6.025178 0.09646,-2.656124 3.659239,0.240428 5.163529,0.458341 2.117163,0.603046 5.734132,2.518899 2.871016,4.640741 -1.387189,0.923134 -2.27988,3.210643 -3.693171,0.926096 z m 2.421341,-0.307179 c 1.277663,-1.059038 2.739948,-3.684469 -0.105166,-3.776493 -1.641983,-0.667206 -4.709362,-3.192662 -5.835529,-1.627031 1.085963,2.353981 3.159696,4.160168 4.849484,6.127015 0.560721,0.467349 0.963782,-0.312859 1.091211,-0.723491 z m 19.546583,1.239066 c -2.146093,-1.287762 -6.080452,-2.511662 -6.131786,-5.116038 1.273044,-1.930414 3.761652,-2.725623 5.631713,-4.063892 2.471481,-1.482366 4.975287,-2.9955036 7.784675,-3.8481656 1.142256,2.1526076 -0.853516,4.3314116 -1.523133,6.3547266 -1.273076,2.428866 -2.567715,5.020714 -4.768361,6.816137 -0.341667,0.07712 -0.671669,-0.0603 -0.993108,-0.142768 z m 1.124833,-0.860588 c 2.799136,-2.826534 4.462403,-6.510371 5.464993,-10.215369 0.439569,-2.4462692 -3.127341,0.384225 -4.243896,0.827982 -2.452894,1.658415 -5.236902,2.976587 -7.358885,5.000895 -0.822747,2.134483 2.722651,3.442536 4.361878,4.423382 0.585847,0.166471 1.197457,0.123024 1.77591,-0.03689 z"
       id="path3438" />
    <path
       style="fill:#615058"
       d="M 34.795442,57.448098 C 29.194138,57.17275 23.53584,57.795529 17.969031,57.131361 c -1.565324,-1.506199 -1.988434,-3.814215 -3.631526,-5.372875 -1.57331,-1.663951 -1.435809,-4.94734 1.664845,-4.375338 2.805314,0.712756 5.172424,-0.413634 6.53906,-2.71695 1.178466,-1.503199 4.557151,-2.507084 3.440949,-4.784629 -1.460456,-2.187247 -3.339627,-4.275213 -3.609839,-6.967106 0.279302,-2.456852 -1.053816,-4.544632 -1.740359,-6.806425 -0.578184,-2.971215 -3.355873,-4.913225 -4.808129,-7.497316 -1.333936,-1.941656 -2.664476,-3.926448 -3.423001,-6.142341 2.161292,-2.107457 4.940896,0.632684 7.337677,0.931962 3.229219,0.942919 6.300461,2.874378 9.783017,2.707314 3.654031,-0.530213 6.669012,-2.752274 9.847469,-4.364752 3.699227,-2.0651292 7.42483,-4.4803916 11.694812,-5.2503872 1.411513,1.6642181 -0.383143,4.0412182 -0.678569,5.9247482 -1.178769,4.031567 -3.664631,7.530639 -5.539677,11.273175 -1.668956,3.726286 -0.365305,8.285906 -3.158449,11.638905 -1.361961,1.849109 -4.571891,4.122311 -2.626898,6.547337 1.655555,1.796056 4.726818,2.398785 5.648319,4.677669 0.04332,2.576406 0.423028,5.13166 1.551976,7.50971 1.216549,2.004143 -0.14331,3.762074 -2.54041,3.39444 -2.976258,-0.04998 -5.94799,0.110118 -8.924856,-0.0104 z m 10.101512,-0.76498 c 1.84525,-2.103635 -0.352503,-5.056427 -0.917752,-7.130156 -1.581577,1.895415 -2.887009,4.203141 -5.076384,5.578129 -2.401181,0.748584 -5.111124,0.561311 -7.540073,-0.03634 -2.30262,-1.469376 -4.840922,-1.963576 -7.538266,-1.049786 -2.411553,1.258589 0.619926,3.85389 2.614916,2.788723 6.152654,0.04363 12.308019,0.07198 18.457559,-0.150569 z M 21.564741,56.430163 c -0.723459,-1.020148 -4.72898,-1.403556 -2.711038,0.212199 0.688528,-0.04303 2.601484,0.690562 2.711038,-0.212199 z m 10.060716,-7.663722 c 3.821921,-0.09508 7.488865,-1.501549 10.634789,-3.484982 -1.191541,-2.302106 -5.558873,-3.17911 -4.775783,-6.220387 1.362996,-2.184952 3.942971,-3.651149 4.518432,-6.300707 1.045692,-3.476316 0.211343,-7.410404 2.405229,-10.572426 2.335845,-4.282203 4.839295,-8.554095 6.126726,-13.2463107 -0.46328,-2.8996982 -4.146277,0.4117956 -5.850002,0.7725335 -4.310725,2.0227162 -8.354963,4.5146902 -12.558537,6.7050062 -4.348699,1.435057 -8.676227,-0.85311 -12.678275,-2.235911 -1.637999,-0.493284 -5.056677,-2.658746 -5.868788,-0.807581 0.696839,2.505721 3.001709,4.307561 4.297308,6.56268 1.504698,2.127099 3.813935,4.073952 3.809334,6.814856 0.69088,2.516815 0.05424,-2.4466 1.358149,-3.077182 1.466205,-1.274229 3.70068,-1.424574 5.628922,-1.483398 3.587653,0.128692 7.618401,0.884703 9.794086,3.860697 2.497139,2.942966 1.510824,7.264855 -1.062553,9.860116 -2.476029,2.747581 -6.960261,4.396093 -10.549684,2.688879 -1.123292,-0.912502 -1.670083,-0.810397 -0.39136,0.310413 1.494063,0.907485 -0.267574,4.069477 0.110346,3.671669 0.41192,-0.565093 2.840228,-3.0691 2.450844,-2.020212 -1.349554,1.214343 -3.868266,4.329784 -1.306366,5.381959 2.081427,0.72334 0.368418,3.923527 2.893691,2.863211 0.334584,-0.04732 0.675445,-0.08008 1.013492,-0.04293 z m 2.355076,-4.226572 c -0.316829,-1.887858 -1.398292,-3.118688 -2.801636,-4.375923 0.976444,0.121205 2.38564,2.682794 4.236976,2.36234 3.144407,-0.101571 0.308868,3.768509 -1.43534,2.013583 z m 1.953188,-0.07585 c 2.253612,-2.030888 -3.44079,-2.299982 -1.671026,-0.132325 0.462782,0.364572 1.145118,0.364147 1.671026,0.132325 z M 20.140534,21.685681 c -2.034136,-1.937085 -3.415301,-4.379371 -5.002648,-6.623977 -0.35436,-2.568756 3.166788,-0.09477 4.5155,0.209504 1.691396,0.713623 3.340585,1.53891 4.825463,2.589412 -0.63221,1.084123 -2.350438,3.431413 -2.910124,3.26086 1.065627,-1.339806 3.454288,-3.788777 0.248194,-4.214241 -1.736516,-0.759088 -4.179709,-2.786013 -5.84375,-1.917932 0.356683,2.555923 3.057796,4.163288 4.508562,6.216616 0.69453,0.674461 0.693567,1.132777 -0.341197,0.479758 z m 21.080376,0.130624 c -2.018867,-1.289163 -6.487215,-2.568723 -5.748751,-5.254041 1.527764,-1.829919 3.980466,-2.674233 5.936884,-4.039381 2.277283,-1.361132 4.581575,-2.7820349 7.206116,-3.4728029 0.795346,2.2029879 -0.832442,4.3199139 -1.607949,6.3261089 -1.177444,2.311229 -2.496152,4.664724 -4.535911,6.405042 -0.380554,0.200303 -0.856216,0.195399 -1.250389,0.03508 z m 1.69939,-1.015497 c 2.563526,-3.029871 4.26062,-6.699862 5.134549,-10.463456 -1.155193,-1.5535379 -3.573594,1.259061 -5.060841,1.762065 -2.503909,1.527586 -5.144671,2.954958 -7.167641,5.059201 0.880366,2.140298 3.450774,3.344672 5.5791,4.127593 0.546242,0.04988 1.135116,-0.09391 1.514833,-0.485403 z M 28.45626,48.348576 c -0.283185,-0.555915 -2.175181,-0.605721 -0.803481,-1.627067 -0.792727,-1.274777 -2.490609,1.927434 -0.260793,1.806111 0.360171,0.093 0.759158,0.02082 1.064274,-0.179044 z m -6.674729,-1.063917 c -0.380403,-1.375902 3.90016,-2.000092 1.742912,-2.841567 -1.290898,0.572592 -2.516966,2.763988 -2.432971,3.63028 0.393017,-0.05098 0.74109,-0.399785 0.690059,-0.788713 z m 4.406962,-2.635288 c 1.27874,-3.374042 -4.348072,0.371013 -0.256832,0.166871 l 0.256832,-0.166871 0,0 z m 7.009426,-6.378493 c 4.417102,-1.638428 7.814127,-6.811599 5.596529,-11.135725 -1.360059,-2.252745 -4.011443,-3.670214 -6.714918,-3.925785 -0.296796,2.227407 1.397912,3.065221 3.45179,3.054907 1.258141,0.0087 2.813696,2.055144 0.870057,0.769497 -0.958244,-0.597076 -5.055888,-0.922651 -3.201266,0.484307 2.266163,-0.925726 4.989753,1.434551 2.226927,2.878089 -1.83011,0.890669 -2.285981,-2.175168 -2.736772,-1.862124 -1.398333,0.417527 -0.208048,-2.281183 -1.794631,-0.728722 -0.384795,-1.29172 -1.010544,0.978117 -2.408596,0.3306 -1.504159,-0.466443 -1.861243,0.08103 -1.68141,1.373609 -0.396957,2.006459 -3.009048,0.501075 -3.49309,0.716174 -1.252876,4.230932 2.695254,9.160663 7.475615,8.62707 0.829834,-0.06917 1.645159,-0.272066 2.409765,-0.581897 z M 28.034402,36.5152 c 1.118549,0.01053 5.515514,-0.249636 2.416411,0.190617 -0.80612,0.09597 -1.645634,0.07224 -2.416411,-0.190617 z m -4.026394,-8.467656 c 2.454841,-1.315364 -2.021836,-0.826072 -0.706674,0.290547 l 0.241169,-0.08466 0.465505,-0.205887 z m 0.386026,-1.644894 c 2.01744,-0.943874 0.45271,-4.74939 -1.127548,-2.024443 -0.774702,0.938765 -1.189313,4.038458 0.700676,2.185473 l 0.426872,-0.16103 0,0 z"
       id="path3436" />
    <path
       style="fill:#3074d7;fill-opacity:1"
       d="m 35.301577,57.351749 c -5.564832,-0.239784 -11.139866,0.136683 -16.702441,-0.18308 -2.33229,-0.9523 -2.39015,-3.903905 -4.216711,-5.407989 -1.357048,-1.595268 -2.008308,-5.188082 1.335502,-4.34184 2.674077,0.197264 5.134441,-0.0597 6.454757,-2.485871 1.374173,-1.784429 5.426728,-2.966384 3.505545,-5.646542 -1.806807,-2.271864 -3.495187,-4.773928 -3.520703,-7.729295 -0.161525,-2.768471 -1.489951,-5.383086 -2.595298,-7.931235 -2.260484,-3.051427 -4.671842,-6.03352 -6.472013,-9.357424 -1.568812,-1.85634 0.503063,-3.504256 2.46003,-2.363752 2.735397,1.248011 5.713501,1.889236 8.493103,3.050117 2.764159,0.978426 6.106634,1.821069 8.779909,0.169626 5.693253,-2.6079 10.711741,-6.4807239 16.695927,-8.4995799 2.97336,-0.462861 1.80145,2.581953 1.22177,4.0809109 -1.094,4.261077 -3.414605,8.084379 -5.563406,11.92683 -2.25227,4.102846 -0.74487,9.348694 -3.980424,13.052055 -1.736729,1.695201 -4.695832,4.819381 -1.503763,6.676261 1.582801,1.919533 5.250537,2.231949 4.991727,5.15231 -0.0736,2.332826 0.6503,4.546329 1.52514,6.698253 1.638836,2.223256 -0.84536,3.277869 -2.98091,3.135095 -2.642273,0.01528 -5.285805,0.159564 -7.927741,0.0052 l 0,-5e-5 z m 8.179911,-0.658233 c 3.687421,0.178758 1.57421,-4.012149 1.05147,-5.865226 -0.0598,-1.401017 -1.0548,-1.974778 -1.53054,-0.34762 -1.839986,1.809131 -3.103613,5.146084 -6.193326,4.992116 -2.803299,-0.0999 -5.791677,-0.263532 -8.185129,-1.793293 -1.866925,-0.485895 -5.155219,-0.820472 -5.815363,1.453426 -0.124109,3.071776 4.52265,1.066375 6.592221,1.651717 4.692754,-0.06428 9.399378,0.307208 14.080667,-0.09112 z m -21.8839,-0.275147 c -0.749466,-1.27658 -5.031252,-1.517305 -2.718104,0.210357 0.625348,-0.04788 2.847331,0.772245 2.718104,-0.210357 z m 9.398945,-7.608014 c 4.088888,0.04758 7.908097,-1.638974 11.360815,-3.544761 -1.249202,-2.280449 -5.388932,-2.934709 -4.910681,-6.021025 1.149784,-2.446463 4.131013,-3.854121 4.617553,-6.701501 0.832118,-2.99619 0.250178,-6.233335 1.630758,-9.122957 1.26482,-2.884083 3.25571,-5.429414 4.465196,-8.346902 0.96445,-2.264771 2.10565,-4.618591 2.23453,-7.0625229 -1.85605,-1.551863 -4.491506,1.429131 -6.550816,1.867511 -4.032529,1.9645969 -7.81069,4.3829709 -11.837668,6.3366989 -4.534894,1.329912 -9.040753,-0.843711 -13.186289,-2.355809 -1.418864,-0.925009 -6.431622,-2.887287 -5.117751,0.326865 1.417741,2.320382 3.127358,4.486727 4.754274,6.688142 1.7982,1.924503 3.03388,4.131276 3.32391,6.69454 0.888372,1.845363 -0.3204,-1.925051 0.513263,-2.594082 1.052541,-2.963431 4.913517,-2.859881 7.623247,-2.701213 2.798588,-0.140463 5.636582,0.99432 7.63547,2.82954 1.197181,1.463349 -1.613736,-0.965043 -2.383955,-1.148443 -1.816986,-1.400466 -4.693857,-0.999642 -2.65016,1.355881 1.729076,1.376199 -1.140974,1.578655 -1.315669,1.853576 -0.508387,1.311882 -0.414909,-2.596425 0.632412,-0.758027 1.248932,-1.969652 -1.815121,-4.877278 -4.391559,-3.943064 -2.483771,-0.07265 -3.061972,4.249703 -1.293462,4.977291 1.931551,0.907219 4.47562,-0.182077 3.872852,-2.337714 1.920081,2.130768 -1.069269,3.29024 -2.990224,2.706724 -1.897673,-0.752156 0.661929,1.326252 -0.820548,2.284336 -1.102834,2.203928 -2.851427,-2.159748 -3.177682,0.435127 -0.658401,3.218127 1.213046,6.764734 4.586987,7.840844 4.235652,1.54266 9.040767,-1.206239 10.850426,-4.858352 1.018192,-1.478845 0.627386,-3.736381 1.097155,-5.046815 1.13255,5.756571 -4.851132,11.340621 -10.919724,10.628057 -1.091836,0.408677 -4.473553,-2.843532 -2.597162,-0.558896 1.199799,1.435161 1.141191,4.507454 -1.23006,4.691964 -1.752331,0.463179 0.603637,1.916427 -1.271787,1.146652 -1.413461,0.488442 -2.82152,2.674869 -2.738321,3.656978 1.469021,0.399012 0.927377,-2.07069 2.318951,-2.197732 0.618531,-1.67267 4.074125,-0.522548 4.654778,0.421241 -3.295583,-0.447668 -0.405154,3.906673 0.788643,1.688936 -1.659537,0.128459 -1.793145,-1.093155 -0.428974,-1.172113 -0.684706,1.067004 1.530443,0.486222 0.610725,1.834501 -0.156382,1.044286 1.681987,-0.03923 2.240547,0.206524 z m -5.897719,-19.95538 c 0.598096,-1.586985 -2.101236,1.111089 -0.12672,0.114575 l 0.09618,-0.08696 0.03054,-0.02761 0,-5e-6 z M 24.20705,27.880757 c 1.445022,-0.542005 -0.369756,-1.645308 0.803346,-2.38209 0.941494,-1.521204 -0.322352,-3.558805 -1.7597,-1.504717 -0.968526,0.910512 -1.475491,5.536343 0.956354,3.886807 z"
       id="path3434"
       sodipodi:nodetypes="cccccccccccccccccccccccccccccccccccccccccccccccccccccccccccccccccccccccccccccccccc" />
    <path
       style="fill:#141011"
       d="m 35.301576,57.351749 c -5.564832,-0.239784 -11.139866,0.136683 -16.702441,-0.18308 -2.33229,-0.9523 -2.39015,-3.903905 -4.216711,-5.407989 -1.357048,-1.595268 -2.008308,-5.188082 1.335502,-4.34184 2.674077,0.197264 5.134441,-0.0597 6.454757,-2.485871 1.374173,-1.784429 5.426728,-2.966384 3.505545,-5.646542 -1.806807,-2.271864 -3.495187,-4.773928 -3.520703,-7.729295 -0.161525,-2.768471 -1.489951,-5.383086 -2.595298,-7.931235 -2.260484,-3.051427 -4.671842,-6.03352 -6.472013,-9.357424 -1.568812,-1.85634 0.503063,-3.504257 2.46003,-2.363753 2.735397,1.248012 5.713501,1.889238 8.493103,3.050118 2.764159,0.978426 6.106634,1.821069 8.779908,0.169626 5.693256,-2.607898 10.71174,-6.480729 16.695933,-8.4995811 2.973362,-0.4628574 1.801442,2.5819535 1.221766,4.0809111 -1.094002,4.261077 -3.414601,8.084384 -5.563415,11.926831 -2.25226,4.102846 -0.744863,9.348692 -3.980417,13.052055 -1.73673,1.695201 -4.695832,4.819381 -1.503764,6.676261 1.582804,1.919531 5.250533,2.231949 4.991723,5.15231 -0.07359,2.332826 0.650308,4.546329 1.525146,6.698253 1.638842,2.223256 -0.845355,3.27787 -2.980914,3.135096 -2.64227,0.01528 -5.285801,0.159563 -7.927737,0.0052 z m 8.17991,-0.658231 c 3.68742,0.178757 1.574207,-4.012151 1.051466,-5.865228 -0.06273,-1.409002 -1.052732,-1.966977 -1.538227,-0.346064 -1.794795,1.802338 -3.082871,5.060406 -6.112793,4.977503 -1.307869,0.07944 -4.409741,-0.320919 -4.54062,-0.479493 2.124501,-0.309815 4.696419,0.862715 6.399165,-0.689545 2.686004,-1.99377 4.758244,-4.826431 5.404592,-8.018323 -1.716503,-2.061882 -4.225778,1.505652 -6.356626,1.611974 -1.046978,0.425531 -3.538393,0.704066 -1.091764,-0.01963 1.714409,-0.846922 4.891035,-1.550764 5.435501,-2.960159 -1.485058,-1.985003 -5.581283,-2.98489 -4.558048,-6.038275 1.539841,-2.231196 4.171743,-3.88624 4.604287,-6.737238 0.648254,-2.881551 0.211424,-5.951266 1.516553,-8.708937 1.264833,-2.884081 3.255718,-5.429413 4.465205,-8.346902 0.964453,-2.264772 2.105659,-4.618594 2.234538,-7.0625238 -1.856061,-1.5518637 -4.491518,1.4291305 -6.550832,1.8675108 -4.032526,1.964596 -7.810686,4.382972 -11.837664,6.3367 -4.534894,1.329912 -9.040753,-0.843711 -13.186289,-2.355809 -1.418864,-0.925008 -6.431622,-2.887289 -5.117751,0.326865 1.417741,2.320382 3.127358,4.486727 4.754274,6.688142 1.7982,1.924503 3.03388,4.131276 3.32391,6.69454 0.888372,1.845364 -0.3204,-1.925051 0.513263,-2.594082 1.052541,-2.96343 4.913517,-2.859881 7.623247,-2.701213 2.798588,-0.140462 5.636582,0.994321 7.635469,2.82954 1.197181,1.463349 -1.613735,-0.965042 -2.383954,-1.148443 -1.816986,-1.400466 -4.693857,-0.999642 -2.65016,1.355881 1.729076,1.376199 -1.140974,1.578655 -1.315669,1.853577 -0.508387,1.311882 -0.414909,-2.596426 0.632412,-0.758028 1.248932,-1.969651 -1.815121,-4.877277 -4.391559,-3.943064 -2.483771,-0.07265 -3.061972,4.249703 -1.293462,4.977292 1.931551,0.907219 4.47562,-0.182078 3.872852,-2.337714 1.920081,2.130767 -1.069269,3.29024 -2.990224,2.706723 -1.897673,-0.752156 0.661929,1.326253 -0.820548,2.284336 -1.102834,2.203928 -2.851427,-2.159747 -3.177682,0.435127 -0.658401,3.218127 1.213046,6.764734 4.586987,7.840844 4.235652,1.54266 9.040766,-1.206239 10.850425,-4.858351 1.018192,-1.478845 0.627386,-3.736382 1.097155,-5.046816 1.13255,5.756572 -4.851131,11.340621 -10.919723,10.628057 -1.091836,0.408677 -4.473553,-2.843531 -2.597162,-0.558896 1.199799,1.435161 1.141191,4.507454 -1.23006,4.691964 -1.752792,0.461104 0.603188,1.917837 -1.26916,1.145204 -1.281899,0.454819 -3.24276,2.915895 -2.541405,3.677621 2.005081,0.560836 -1.843585,-0.120272 -2.488794,-0.174629 -1.941285,-0.130133 -5.917425,-1.013576 -4.377209,2.036358 1.22944,2.314243 3.004003,4.656238 5.858285,5.255051 1.488114,0.543149 2.429597,0.577862 2.751187,-0.964341 1.564625,-1.239858 3.99192,-1.359466 5.910268,-1.027199 1.149009,0.355954 3.138565,2.523783 0.961472,1.023233 -1.806895,-1.229642 -4.395706,-1.051575 -6.217781,-0.159563 -1.492944,1.393408 -0.177656,3.545473 1.886816,2.734699 6.060267,-0.112657 12.137732,0.339407 18.185837,-0.07828 z m -15.209172,-7.5979 c 0.959604,-1.322196 -0.255878,-1.353916 -1.199463,-1.563056 0.460072,-0.777341 1.357679,-1.160378 1.140839,-0.193244 1.670798,0.404185 -0.317258,1.492508 1.122149,1.763343 -0.343201,0.130018 -0.714208,-0.01807 -1.063525,-0.0071 z m 1.507352,-0.07853 c 0.968692,-0.428438 5.131371,-0.29716 2.086459,0.022 -0.691169,0.04302 -1.409404,0.187588 -2.086459,-0.022 z m -6.025051,-0.608141 c -0.577574,-1.942145 2.16748,0.541964 0.130996,0.08922 l -0.10805,-0.07359 -0.02295,-0.01563 c 0,0 0,-4e-6 0,-4e-6 z m -1.963053,-1.293936 c 0.364229,-2.172968 4.726224,-2.678073 5.087947,-1.293028 -2.064763,-0.931616 -3.995973,-0.751913 -5.087947,1.293028 z m 4.307966,-2.573881 c 1.231242,-1.051176 -0.683062,1.23998 0,0 z m 7.683028,-0.267453 c -1.934759,-1.019883 2.447327,-2.644105 0.148704,-1.222652 -1.124669,0.808594 2.405282,2.420535 -0.148704,1.222652 z m 2.578469,-0.856133 c -0.522227,-0.881237 -1.324967,-1.435464 0.03727,-0.571605 0.245003,0.1068 0.295314,1.617467 -0.03727,0.571605 z m -9.751344,-0.780227 c 0.243777,-0.697206 2.701227,-3.079201 2.242888,-2.154259 -0.769435,0.693809 -1.303191,1.6395 -2.242888,2.154259 z m 5.348094,-1.625691 c -1.99016,-1.875572 1.376581,0.199319 1.053827,0.930031 -0.410965,-0.244138 -0.709778,-0.613718 -1.053827,-0.930031 z m 1.50533,-11.245013 c -0.125854,-0.788162 -0.215274,-2.526202 -1.294661,-1.233224 -0.536629,-1.80201 4.514054,-1.561004 4.350803,0.06288 -0.868007,0.859787 -1.602376,2.844804 -3.056142,1.170341 z m 1.013516,-0.982506 c 0.894776,-1.790603 -1.564258,0.286356 -0.309376,0.152528 l 0.309376,-0.152528 z M 19.5723,21.102164 c -1.361543,-1.513792 -3.53588,-4.696503 -3.951523,-5.462117 1.748425,1.907104 3.126942,4.100162 5.014183,5.888629 0.442776,0.806813 -0.924687,-0.215947 -1.06266,-0.426512 z m 21.619003,0.536601 c -0.864976,-0.712732 2.850031,-0.501294 2.637684,-2.053388 2.18868,-2.919469 3.680777,-6.290585 4.394838,-9.7976393 -1.965915,-0.9672147 -5.536747,2.8414343 -5.745829,2.1321383 1.911074,-0.973565 3.776954,-2.5090466 5.963408,-2.6992856 0.596138,2.3556156 -1.268483,4.9061466 -2.270136,7.0900586 -1.428541,1.81745 -2.073132,5.253151 -4.979965,5.328116 z M 38.264844,20.0863 c -2.159805,-0.738036 -4.554433,-3.557882 -1.452088,-4.797914 0.948939,-0.68532 3.768408,-2.225079 3.684743,-2.054552 -1.437755,1.47035 -5.692189,2.642369 -4.274501,5.045804 0.865292,1.050948 3.61602,2.173513 3.644039,2.812695 -0.552371,-0.308922 -1.069553,-0.668776 -1.602193,-1.006033 z m -16.247553,0.234882 c 1.548651,-0.976335 2.20789,-3.492961 -0.359181,-3.59384 -1.944791,-0.78923 -4.538079,-3.151356 -6.455164,-1.682418 -0.84443,-2.688357 3.112049,-0.169034 4.310405,0.174371 1.880213,0.886056 6.248471,2.291408 3.336347,4.594375 -0.55877,0.512007 -1.897143,1.924124 -0.832406,0.507512 l -1e-6,0 z m -0.419704,36.097187 c -0.749466,-1.27658 -5.031252,-1.517305 -2.718104,0.210357 0.625348,-0.04788 2.847331,0.772245 2.718104,-0.210357 z m 3.50122,-27.563399 c 0.598096,-1.586985 -2.10123,1.111094 -0.126714,0.11458 l 0.09618,-0.08696 0.03054,-0.02761 c 0,0 0,-5e-6 0,-5e-6 z m -0.891758,-0.974213 c 1.445022,-0.542005 -0.369756,-1.645308 0.803346,-2.38209 0.941494,-1.521204 -0.322352,-3.558805 -1.7597,-1.504717 -0.981857,0.943673 -1.473514,5.472455 0.956354,3.886807 z m -1.483156,-0.375369 c 0.542614,-1.121252 1.672043,-1.024071 0,0 z"
       id="path3432" />
    <path
       sodipodi:type="arc"
       style="fill:url(#radialGradient2849);fill-opacity:1;stroke:#225500;stroke-width:0;stroke-linecap:butt;stroke-linejoin:round;stroke-miterlimit:4;stroke-opacity:1;stroke-dasharray:none;stroke-dashoffset:0"
       id="path2827"
       sodipodi:cx="21.148922"
       sodipodi:cy="50.179276"
       sodipodi:rx="10.349472"
       sodipodi:ry="10.349472"
       d="m 31.498394,50.179276 a 10.349472,10.349472 0 1 1 -20.698944,0 10.349472,10.349472 0 1 1 20.698944,0 z"
       transform="matrix(1.1552795,0,0,1.1552795,24.645141,-10.532641)" />
  </g>
</svg>
